<?xml version="1.0" standalone="no"?>
<!DOCTYPE svg PUBLIC "-//W3C//DTD SVG 20010904//EN"
 "http://www.w3.org/TR/2001/REC-SVG-20010904/DTD/svg10.dtd">
<svg version="1.0" xmlns="http://www.w3.org/2000/svg"
 width="1728.000000pt" height="1728.000000pt" viewBox="0 0 1728.000000 1728.000000"
 preserveAspectRatio="xMidYMid meet">
<metadata>
Created by potrace 1.11, written by Peter Selinger 2001-2013
</metadata>
<g transform="translate(0.000000,1728.000000) scale(0.100000,-0.100000)"
fill="#000000" stroke="none">
<path d="M8908 13745 c-2 -1 -45 -6 -96 -9 -51 -4 -103 -9 -115 -12 -12 -2
-51 -6 -88 -9 -36 -3 -75 -7 -86 -9 -11 -3 -44 -7 -73 -11 -29 -4 -62 -9 -74
-11 -12 -2 -32 -6 -46 -8 -14 -3 -41 -8 -60 -10 -19 -3 -46 -8 -60 -11 -68
-15 -180 -34 -225 -38 -27 -3 -61 -8 -75 -12 -14 -3 -35 -8 -47 -11 -12 -2
-75 -16 -140 -30 -65 -14 -129 -27 -143 -29 -14 -2 -80 -18 -147 -34 -67 -17
-132 -32 -145 -35 -157 -31 -544 -155 -800 -256 -308 -122 -492 -227 -778
-443 -80 -61 -147 -113 -150 -116 -3 -3 -48 -40 -100 -82 -53 -42 -102 -83
-110 -90 -8 -8 -28 -25 -44 -37 -81 -62 -353 -306 -522 -467 -23 -22 -117
-113 -210 -201 -93 -89 -202 -192 -241 -230 -91 -87 -97 -106 -52 -195 88
-175 176 -253 324 -287 61 -14 93 -20 165 -28 30 -3 64 -8 75 -10 96 -18 308
-24 410 -10 92 11 219 50 413 125 289 111 326 128 364 169 137 146 355 356
458 443 93 77 301 229 315 229 2 0 28 15 57 34 244 155 781 353 1113 411 17 3
56 10 87 15 32 6 70 13 85 16 16 3 177 8 358 10 292 3 376 -1 503 -21 17 -3
49 -8 70 -11 20 -3 44 -7 52 -9 8 -2 31 -7 50 -10 19 -3 43 -8 52 -11 9 -3 25
-7 35 -9 28 -6 132 -32 196 -50 50 -14 246 -82 302 -104 11 -5 52 -21 90 -36
69 -28 265 -122 336 -163 101 -57 333 -217 421 -290 245 -205 401 -365 545
-558 12 -16 36 -49 55 -74 31 -42 125 -186 179 -275 108 -179 229 -446 279
-620 23 -78 54 -144 84 -177 14 -14 85 -71 158 -127 73 -55 165 -125 203 -157
39 -31 88 -70 110 -88 65 -51 329 -269 341 -280 6 -6 35 -31 64 -56 46 -38
106 -91 344 -300 58 -52 83 -75 171 -159 50 -47 132 -124 184 -170 137 -124
306 -299 481 -496 29 -33 71 -81 94 -106 56 -63 131 -149 156 -179 99 -117
228 -254 251 -266 64 -33 198 -2 354 81 219 117 280 154 283 169 2 9 -8 58
-22 109 -14 50 -39 143 -56 204 -17 62 -33 121 -35 130 -7 34 -148 580 -202
783 -30 113 -56 212 -58 220 -2 8 -14 62 -28 120 -14 58 -31 128 -37 155 -7
28 -14 58 -16 68 -2 9 -6 25 -8 35 -2 9 -22 78 -44 152 -23 74 -115 430 -206
790 -155 615 -244 960 -317 1230 -17 63 -32 121 -34 130 -7 36 -76 287 -86
311 -10 26 -56 52 -144 82 -62 22 -586 216 -625 232 -45 18 -583 213 -635 230
-22 7 -260 88 -530 180 -269 91 -539 181 -600 200 -112 34 -418 123 -445 130
-8 2 -73 20 -145 40 -176 50 -266 75 -293 81 -13 2 -49 12 -80 20 -32 8 -68
17 -82 20 -14 3 -39 9 -56 15 -17 5 -40 11 -51 13 -10 2 -48 11 -84 19 -64 16
-312 73 -359 83 -14 3 -52 8 -85 11 -33 3 -116 13 -183 23 -83 12 -184 18
-307 18 -101 0 -185 -2 -187 -3z"/>
<path d="M15467 13634 c-4 -5 -75 -26 -127 -39 -62 -15 -411 -107 -435 -114
-30 -10 -186 -50 -215 -56 -8 -2 -33 -8 -55 -14 -22 -6 -43 -11 -47 -11 -4 -1
-22 -6 -40 -11 -60 -19 -143 -41 -168 -45 -14 -3 -32 -7 -40 -10 -15 -6 -40
-13 -255 -69 -150 -39 -203 -76 -219 -152 -7 -29 23 -161 99 -438 20 -74 69
-252 108 -400 20 -71 45 -166 57 -210 12 -44 64 -238 115 -430 52 -193 117
-434 145 -535 28 -102 53 -192 55 -200 2 -8 11 -42 20 -75 9 -33 25 -91 35
-130 10 -38 39 -146 65 -240 25 -93 54 -201 64 -240 32 -118 111 -407 126
-460 9 -27 36 -124 61 -215 25 -91 52 -190 61 -220 8 -30 19 -68 23 -85 5 -16
14 -46 20 -65 10 -30 62 -212 75 -260 2 -8 18 -76 35 -150 17 -74 53 -214 80
-310 27 -96 58 -209 69 -250 20 -74 45 -163 76 -270 9 -30 18 -62 20 -70 26
-98 79 -270 91 -291 32 -63 98 -84 184 -59 39 12 337 90 360 95 23 5 279 73
335 89 86 25 309 87 325 91 8 2 123 33 255 70 259 71 283 83 306 153 17 53 8
96 -91 442 -20 69 -119 438 -124 461 -3 13 -50 191 -104 394 -55 204 -121 451
-146 550 -26 99 -53 203 -61 230 -35 123 -117 421 -120 435 -7 31 -95 346
-104 375 -6 17 -31 107 -56 200 -25 94 -55 204 -66 245 -12 41 -22 82 -24 90
-2 8 -43 159 -90 335 -48 176 -88 327 -90 336 -2 9 -12 47 -23 85 -17 59 -111
405 -156 574 -123 464 -211 771 -230 809 -23 44 -61 65 -122 68 -29 1 -54 -1
-57 -3z"/>
<path d="M1688 13395 c-74 -25 -106 -83 -143 -265 -2 -8 -15 -58 -29 -110 -21
-79 -88 -337 -100 -390 -7 -29 -76 -286 -102 -377 -14 -51 -27 -101 -29 -110
-2 -10 -13 -49 -24 -88 -17 -61 -73 -273 -146 -545 -95 -356 -168 -627 -169
-635 -2 -5 -8 -30 -15 -55 -124 -454 -317 -1186 -327 -1235 -2 -10 -19 -76
-38 -145 -33 -121 -73 -275 -81 -309 -3 -9 -23 -83 -45 -166 -22 -82 -54 -200
-70 -260 -16 -61 -56 -210 -89 -332 -34 -122 -68 -248 -77 -280 -69 -254 -73
-270 -62 -312 14 -56 81 -115 145 -128 63 -13 459 -117 548 -143 39 -12 77
-23 85 -25 8 -1 44 -11 80 -20 36 -9 72 -19 80 -20 8 -2 78 -20 155 -40 77
-20 147 -38 155 -40 8 -2 96 -24 195 -50 99 -25 199 -46 223 -47 74 0 116 45
147 157 9 33 25 92 36 130 11 39 22 79 24 90 2 11 18 72 35 135 18 63 33 122
35 130 2 8 8 35 15 60 7 25 14 52 16 60 2 8 13 51 24 95 12 44 23 89 25 100
12 56 163 628 179 677 13 37 89 315 101 365 2 10 18 70 35 133 17 63 33 126
36 139 10 48 127 491 214 811 92 338 159 590 165 619 2 9 42 162 90 341 48
179 91 339 95 355 5 17 18 64 30 105 12 41 23 82 25 90 2 8 17 65 34 125 167
619 223 843 216 883 -8 54 -35 101 -66 117 -22 12 -133 44 -239 70 -24 5 -290
77 -345 92 -27 8 -57 16 -65 18 -15 3 -32 8 -250 68 -200 56 -643 169 -671
172 -15 1 -42 -3 -61 -10z"/>
<path d="M3684 12468 c-3 -4 -3 -8 -1 -8 2 0 -2 -26 -10 -57 -7 -32 -16 -66
-18 -77 -2 -10 -16 -64 -31 -120 -14 -55 -27 -108 -29 -116 -2 -8 -28 -114
-60 -235 -31 -121 -58 -228 -60 -237 -2 -9 -27 -108 -55 -220 -29 -112 -53
-210 -55 -218 -2 -8 -11 -42 -20 -75 -9 -33 -18 -67 -20 -75 -2 -8 -19 -76
-38 -150 -20 -74 -54 -207 -77 -295 -23 -88 -59 -226 -81 -307 -46 -171 -126
-485 -139 -543 -15 -64 -74 -298 -114 -445 -20 -74 -38 -142 -40 -150 -3 -8
-16 -60 -31 -115 -15 -55 -29 -111 -31 -124 -4 -20 -22 -97 -39 -161 -2 -8 -8
-35 -14 -60 -6 -25 -31 -121 -56 -215 -25 -93 -48 -177 -50 -185 -2 -8 -24
-91 -50 -184 -26 -92 -48 -176 -50 -185 -4 -24 11 -38 72 -66 74 -34 314 -208
527 -383 88 -73 125 -86 182 -66 132 47 198 58 354 58 195 0 286 -20 450 -97
113 -53 272 -191 342 -298 21 -31 44 -59 52 -62 8 -3 40 3 70 14 331 116 769
-13 1048 -310 76 -80 111 -129 163 -226 20 -38 42 -73 48 -77 6 -3 79 -6 161
-6 146 0 171 -2 263 -23 103 -22 268 -103 403 -197 81 -56 233 -208 283 -285
99 -149 146 -278 182 -492 28 -164 38 -185 96 -191 134 -15 348 -126 461 -238
66 -65 90 -112 134 -268 106 -371 194 -536 396 -739 253 -254 670 -480 874
-473 264 8 497 151 600 369 57 120 78 242 64 370 -8 69 -2 78 34 59 35 -18
219 -81 261 -89 148 -29 192 -33 295 -31 131 3 220 23 327 71 89 41 131 71
208 150 50 52 121 159 132 200 1 6 10 35 18 65 18 60 24 247 12 340 -9 68 -32
155 -59 227 -11 30 -18 57 -15 59 3 3 64 -27 135 -66 184 -101 324 -155 462
-178 91 -15 290 -7 380 15 246 61 439 211 545 423 37 75 45 102 64 220 24 150
-29 429 -116 604 -36 74 -36 92 0 58 53 -49 275 -145 407 -176 109 -26 140
-29 265 -28 178 0 305 32 486 123 171 85 268 174 313 289 38 93 71 205 82 274
3 21 8 48 11 60 11 46 9 255 -2 323 -13 72 -48 149 -88 194 -12 14 -38 45 -57
69 -19 25 -40 52 -47 60 -27 34 -149 179 -197 234 -28 32 -59 68 -69 80 -10
12 -41 48 -70 81 -56 65 -669 680 -782 785 -38 36 -117 105 -175 155 -58 49
-107 92 -110 95 -3 3 -88 75 -190 160 -102 85 -187 157 -190 160 -28 30 -151
120 -165 120 -15 0 -17 -6 -10 -47 10 -63 11 -351 2 -428 -23 -185 -25 -200
-63 -410 -27 -151 -112 -427 -189 -617 -95 -234 -253 -499 -441 -745 -217
-282 -447 -495 -769 -710 -197 -132 -350 -211 -610 -318 -322 -132 -497 -174
-900 -220 -124 -14 -166 -16 -330 -17 -208 0 -265 4 -433 38 -68 13 -140 27
-160 30 -103 15 -336 66 -404 88 -111 37 -363 138 -449 181 -61 31 -157 86
-297 170 -27 17 -76 49 -92 62 -8 6 -49 37 -90 68 -40 30 -94 73 -120 94 -25
21 -90 76 -144 122 -255 213 -430 433 -657 824 -134 232 -170 310 -232 500
-58 178 -120 386 -133 445 -4 19 -9 40 -10 45 -5 22 -33 203 -39 250 -21 181
-21 381 1 625 3 36 7 90 9 120 19 279 124 670 255 955 26 56 30 76 15 81 -8 3
-45 -3 -82 -15 -83 -25 -108 -29 -214 -36 -164 -11 -392 -6 -499 10 -14 2 -56
9 -95 15 -432 67 -717 294 -846 673 -30 89 -34 111 -33 212 1 105 24 181 79
261 40 58 212 234 420 429 194 183 235 223 235 234 0 21 -31 30 -120 35 -102
7 -191 14 -255 22 -22 2 -65 7 -95 9 -30 3 -68 8 -85 10 -120 16 -275 23 -281
13z"/>
<path d="M8290 12266 c-3 -2 -32 -6 -65 -10 -109 -10 -209 -28 -365 -65 -295
-71 -719 -262 -975 -439 -187 -129 -525 -431 -615 -550 -14 -18 -33 -43 -44
-55 -41 -49 -208 -289 -274 -393 -82 -131 -128 -224 -193 -397 -81 -212 -174
-531 -193 -661 -4 -21 -8 -41 -10 -45 -2 -3 -7 -31 -10 -62 -4 -31 -9 -67 -11
-80 -18 -89 -24 -357 -12 -504 20 -249 71 -519 151 -805 10 -36 69 -199 89
-245 30 -72 170 -345 193 -380 11 -17 38 -57 60 -90 212 -326 511 -640 821
-861 238 -171 553 -329 813 -409 154 -47 313 -89 383 -100 17 -3 46 -8 62 -12
17 -3 41 -7 55 -9 13 -1 47 -6 75 -10 27 -4 64 -8 80 -10 44 -4 595 -4 630 0
17 2 63 7 104 11 305 27 704 149 1026 315 485 249 984 721 1259 1190 48 82
145 278 182 367 75 180 160 467 193 649 6 33 13 70 16 84 31 160 42 303 40
510 -2 184 -23 423 -39 448 -2 4 -7 31 -10 60 -3 30 -8 57 -10 60 -2 4 -7 23
-10 42 -8 49 -14 79 -21 100 -3 10 -7 27 -9 37 -22 108 -99 342 -154 463 -113
251 -189 382 -341 585 -154 206 -330 398 -491 534 -30 25 -61 52 -69 60 -8 7
-49 39 -90 70 -42 31 -78 58 -81 61 -31 32 -294 186 -423 249 -232 111 -626
236 -842 266 -16 2 -46 6 -65 9 -19 3 -53 9 -75 12 -46 7 -729 17 -735 10z
m194 -1076 c17 -17 19 -34 18 -177 0 -87 -1 -163 -2 -168 -6 -30 3 -59 26 -82
23 -23 30 -25 92 -19 85 7 132 23 141 49 4 12 6 99 4 194 l-4 173 25 25 c25
25 26 25 219 25 182 0 195 -1 212 -20 17 -19 19 -40 17 -228 -1 -244 -1 -245
85 -262 218 -46 404 -123 492 -205 49 -46 121 -148 134 -190 3 -11 15 -45 25
-76 51 -144 43 -317 -18 -439 -95 -187 -302 -335 -550 -395 -63 -15 -130 -37
-149 -48 l-34 -21 31 -26 c21 -18 70 -36 159 -59 70 -18 161 -44 201 -57 75
-24 215 -93 251 -122 11 -9 39 -32 63 -51 78 -62 164 -182 201 -281 14 -39 27
-87 43 -165 7 -33 6 -176 -1 -230 -25 -186 -150 -383 -300 -470 -100 -59 -351
-162 -415 -171 -14 -1 -45 -5 -70 -9 -88 -10 -111 -18 -129 -41 -17 -22 -19
-41 -16 -241 2 -185 0 -221 -13 -235 -13 -16 -37 -18 -212 -18 -267 0 -246
-20 -243 234 3 191 2 196 -20 222 -22 25 -29 27 -111 28 -84 0 -89 -1 -111
-26 -22 -26 -23 -31 -20 -213 2 -102 1 -195 -2 -206 -9 -33 -39 -40 -181 -41
-241 0 -246 0 -269 21 -20 19 -21 28 -18 207 2 103 -1 197 -5 210 -5 12 -21
26 -37 31 -16 6 -193 9 -421 9 -247 -1 -405 2 -425 9 -34 11 -44 33 -46 101
-2 62 25 81 124 89 215 18 295 60 324 172 13 49 12 2299 -1 2349 -9 36 -70
109 -107 128 -14 8 -89 30 -166 50 -179 47 -200 66 -175 157 19 69 28 72 235
73 102 1 185 -1 185 -4 0 -3 82 -4 182 -3 101 1 207 2 236 3 42 0 58 5 77 24
23 23 23 26 21 197 -3 187 4 226 37 234 30 7 204 11 307 7 66 -3 89 -8 104
-22z"/>
<path d="M8389 10528 c-15 -5 -31 -21 -37 -36 -16 -44 -16 -1062 0 -1084 27
-37 186 -44 324 -13 207 45 391 216 448 415 60 211 -16 494 -161 605 -88 67
-214 110 -333 114 -25 1 -83 3 -130 5 -47 2 -97 -1 -111 -6z"/>
<path d="M8394 9160 c-52 -20 -51 -9 -50 -598 l1 -547 23 -37 c27 -43 97 -90
179 -120 82 -31 231 -31 328 -1 228 71 376 252 412 503 13 85 7 261 -10 330
-15 60 -24 83 -55 144 -34 65 -169 216 -193 216 -5 0 -27 11 -47 25 -49 32
-134 62 -225 79 -78 15 -329 19 -363 6z"/>
<path d="M3594 6989 c-82 -10 -206 -53 -278 -96 -116 -71 -230 -209 -289 -353
-31 -73 -36 -103 -33 -183 9 -252 231 -512 486 -569 96 -22 175 -14 335 32
153 44 182 44 206 -1 13 -26 7 -129 -12 -174 -20 -49 -18 -260 4 -322 49 -139
188 -287 362 -385 194 -109 393 -123 579 -41 85 38 235 128 273 165 l31 30 6
-43 c3 -24 8 -66 11 -94 6 -49 13 -101 20 -140 16 -99 75 -260 128 -350 104
-177 239 -281 407 -313 61 -12 212 -6 297 12 141 29 198 -4 282 -164 81 -154
87 -164 155 -245 152 -181 341 -278 631 -325 67 -11 268 -16 283 -6 4 2 29 7
56 10 27 4 57 11 68 17 10 5 18 8 18 5 0 -8 141 53 209 91 79 43 137 88 152
115 14 27 7 34 -146 148 -71 54 -144 113 -162 131 -46 49 -79 122 -98 217 -50
251 -161 445 -298 525 -46 27 -144 60 -221 75 -27 6 -124 9 -215 8 l-167 -2 2
216 c2 192 -3 281 -21 360 -3 14 -8 35 -11 47 -11 55 -70 189 -105 243 -75
111 -208 210 -366 272 -199 79 -416 8 -642 -209 -19 -18 -35 -32 -37 -30 -5 4
-12 58 -19 132 -17 204 -36 292 -83 400 -97 222 -353 396 -572 390 -140 -5
-267 -68 -480 -239 l-95 -77 -12 43 c-6 24 -25 97 -43 163 -56 211 -94 288
-182 373 -119 116 -250 160 -414 141z"/>
</g>
</svg>
